<svg width="22" height="20" viewBox="0 0 22 20" fill="none" xmlns="http://www.w3.org/2000/svg">
<path d="M5.66344 7.19148C5.41775 7.32918 5.22942 7.44257 5.03355 7.54266C4.76642 7.67919 4.51666 7.64274 4.33413 7.40786C3.58834 6.44922 2.84835 5.48595 2.11706 4.51632C1.92641 4.2635 1.97277 3.9696 2.226 3.77174C3.14563 3.05377 4.06351 2.33291 5.0011 1.63924C5.57305 1.21749 6.23828 0.98607 6.95567 0.833336C6.95162 3.2094 8.32034 4.45615 10.4522 5.1099C10.1816 5.69827 9.91041 6.29128 9.63748 6.88312C9.3715 7.45993 9.11132 8.03904 8.83665 8.61122C8.54807 9.21232 8.54807 9.79549 8.98152 10.3168C9.39468 10.8137 9.94229 11.0787 10.5983 10.9416C11.2919 10.7964 11.6894 10.3306 11.8209 9.64276C12.0904 9.63061 12.368 9.66243 12.6206 9.59821C13.6283 9.34192 14.0815 8.26005 13.564 7.35521C13.1769 6.67832 12.7614 6.01763 12.3587 5.34941C12.3094 5.26726 12.2596 5.18569 12.2022 5.09081C14.2704 4.41739 15.613 3.17353 15.6014 0.833914C16.3397 0.980285 17.024 1.23542 17.6174 1.67569C18.5313 2.35374 19.4248 3.0584 20.3207 3.76017C20.5965 3.97654 20.6336 4.27102 20.4221 4.54987C19.7059 5.49463 18.9838 6.43533 18.2572 7.37199C18.0451 7.64564 17.793 7.68787 17.4905 7.52472C17.3063 7.42579 17.1266 7.31818 16.8983 7.18743C16.9151 9.37605 16.7841 11.5219 17.2159 13.6167C13.7604 13.9043 12.5262 16.0362 12.4392 19.1667H10.0721C10.1526 17.7429 9.85884 16.4319 8.95023 15.3153C8.03697 14.1935 6.86354 13.6046 5.32851 13.6902C5.77181 11.5323 5.64258 9.38531 5.6646 7.18975L5.66344 7.19148Z" fill="#4C4C4D"/>
<path d="M14.4883 0.833336C14.5702 2.09195 14.0282 2.97181 13.0424 3.58198C11.8187 4.33947 10.5783 4.30061 9.38751 3.4973C8.47148 2.87959 7.98432 2.02003 8.0709 0.836236C10.21 1.34838 12.3301 1.36404 14.4883 0.833336Z" fill="#4C4C4D"/>
<path d="M9.0036 19.1667C6.85304 19.0144 5.44046 17.0244 5.36719 14.8522C5.98886 14.7732 6.57215 14.8747 7.12113 15.1834C8.5308 15.9755 9.18737 17.6654 9.0036 19.1667Z" fill="#4C4C4D"/>
<path d="M17.1905 14.8621C17.1682 16.7699 15.9176 18.9934 13.64 19.1667C13.2942 16.771 15.1712 14.5145 17.1905 14.8621Z" fill="#4C4C4D"/>
<path d="M10.7548 7.29303C10.7548 7.99677 10.7559 8.70107 10.7542 9.4048C10.7536 9.60789 10.6733 9.77477 10.4635 9.85397C10.2163 9.94674 10.0166 9.83474 9.84724 9.68426C9.69748 9.55132 9.66836 9.38104 9.75869 9.19549C10.0707 8.55398 10.3791 7.91078 10.6888 7.26871C10.7108 7.27663 10.7328 7.28511 10.7548 7.29303Z" fill="#4C4C4D"/>
<path d="M11.8685 6.67007C12.1155 7.0862 12.3835 7.4914 12.597 7.92423C12.6594 8.05143 12.6129 8.28569 12.5311 8.41634C12.4732 8.50844 12.2665 8.55333 12.136 8.53779C11.9259 8.51304 11.8129 8.33692 11.8084 8.12683C11.7981 7.64969 11.805 7.17254 11.805 6.69539C11.8265 6.68676 11.8475 6.6787 11.8691 6.67007H11.8685Z" fill="#4C4C4D"/>
</svg>
