<?xml version="1.0" standalone="no"?>
<!DOCTYPE svg PUBLIC "-//W3C//DTD SVG 20010904//EN"
 "http://www.w3.org/TR/2001/REC-SVG-20010904/DTD/svg10.dtd">
<svg version="1.0" xmlns="http://www.w3.org/2000/svg"
 width="1231.000000pt" height="339.000000pt" viewBox="0 0 1231.000000 339.000000"
 preserveAspectRatio="xMidYMid meet">
<metadata>
Created by potrace 1.16, written by Peter Selinger 2001-2019
</metadata>
<g transform="translate(0.000000,339.000000) scale(0.100000,-0.100000)"
fill="#000000" stroke="none">
<path d="M1335 3054 c-185 -34 -336 -90 -482 -179 -543 -329 -784 -984 -583
-1586 71 -215 159 -357 320 -519 98 -99 272 -230 305 -230 7 0 105 42 217 94
111 52 376 174 588 271 428 197 501 236 578 308 90 86 90 152 1 217 -56 40
-127 65 -239 84 -83 13 -295 36 -341 36 -13 0 -17 -19 -22 -112 -19 -333 -29
-444 -40 -455 -14 -13 -167 -77 -171 -72 -3 5 -24 234 -36 404 -35 478 -49
564 -124 797 -19 56 -41 131 -51 166 -10 34 -23 62 -29 62 -20 0 -258 -120
-316 -160 -106 -72 -171 -177 -156 -253 23 -114 137 -177 400 -221 84 -15 142
-29 147 -37 11 -18 11 -66 0 -73 -11 -7 -205 27 -334 59 -198 49 -296 147
-297 295 0 165 125 292 416 424 l130 58 -1 152 c0 135 2 157 23 208 53 130
165 209 302 211 142 2 251 -63 305 -185 15 -35 29 -64 30 -66 2 -2 68 29 148
67 80 39 151 71 157 71 6 0 10 6 8 13 -8 22 -220 105 -343 133 -149 34 -380
42 -510 18z"/>
<path d="M11235 2895 c-3 -14 -7 -36 -10 -50 -5 -25 -4 -25 60 -25 63 0 65 -1
60 -22 -6 -26 -45 -286 -45 -299 0 -5 29 -9 63 -9 l64 0 17 103 c9 56 21 130
27 165 l11 62 63 0 c62 0 63 0 69 31 14 74 27 69 -184 69 l-190 0 -5 -25z"/>
<path d="M11635 2898 c-5 -24 -65 -392 -65 -402 0 -3 27 -6 59 -6 68 0 60 -14
86 149 8 52 16 96 18 98 2 2 13 -52 23 -119 l19 -123 45 -3 45 -3 65 130 c35
72 65 129 66 128 2 -1 -6 -56 -16 -122 -10 -66 -16 -123 -13 -127 2 -5 28 -8
58 -8 62 0 53 -24 90 215 14 88 27 172 30 188 l5 27 -88 0 -88 0 -54 -100
c-29 -55 -56 -100 -60 -100 -4 0 -15 37 -24 83 -10 45 -20 90 -22 100 -5 14
-18 17 -89 17 -80 0 -85 -1 -90 -22z"/>
<path d="M4053 2876 c-96 -19 -217 -60 -280 -96 -85 -49 -169 -134 -205 -208
-30 -60 -33 -75 -33 -157 0 -73 4 -98 23 -136 32 -66 96 -125 177 -164 72 -36
229 -79 325 -90 157 -17 189 -26 215 -57 30 -35 31 -53 6 -94 -35 -58 -152
-91 -267 -75 -110 16 -171 60 -195 141 l-12 40 -209 0 -208 0 0 -48 c0 -26 8
-77 18 -113 39 -139 115 -226 257 -294 115 -56 179 -68 345 -68 154 0 227 11
357 54 160 53 266 139 326 267 30 62 32 75 32 172 0 97 -2 109 -28 152 -37 64
-100 113 -197 154 -76 32 -134 45 -375 89 -165 30 -187 44 -164 112 9 29 21
40 68 62 140 65 341 10 383 -106 l12 -33 203 0 c231 0 210 -10 193 98 -16 97
-51 165 -122 235 -114 113 -251 164 -458 172 -74 3 -141 0 -187 -9z"/>
<path d="M5265 2878 c-2 -7 -16 -78 -30 -158 -14 -80 -28 -153 -31 -162 -5
-16 -22 -18 -165 -18 -87 0 -159 -1 -159 -3 0 -8 -30 -224 -35 -254 l-6 -33
155 0 c85 0 157 -3 159 -7 3 -5 -8 -91 -24 -193 -15 -102 -40 -261 -54 -355
-14 -93 -28 -178 -31 -187 -5 -17 10 -18 213 -18 l218 0 28 188 c16 103 40
259 53 347 13 88 26 175 29 193 l6 32 174 0 c96 0 175 4 175 8 0 14 30 225 36
255 l6 27 -166 0 c-90 0 -167 3 -169 8 -3 4 7 82 22 175 l27 167 -213 0 c-162
0 -215 -3 -218 -12z"/>
<path d="M2245 2831 c-6 -6 -138 -70 -295 -144 -157 -74 -333 -158 -392 -186
l-106 -51 5 -42 c17 -149 74 -269 120 -254 39 13 56 67 78 257 l6 47 107 46
c59 25 111 46 116 46 28 0 -22 -228 -118 -536 -46 -147 -68 -259 -64 -325 l3
-54 165 -13 c91 -7 201 -21 245 -32 149 -37 261 -106 302 -184 35 -66 11 -162
-59 -242 -53 -61 -132 -105 -434 -248 l-291 -137 -12 -152 c-6 -84 -14 -176
-17 -205 l-6 -52 38 0 c113 0 337 55 465 113 406 186 678 529 775 977 27 121
27 412 0 525 -65 282 -165 470 -350 663 -155 160 -245 219 -281 183z"/>
<path d="M1491 2734 c-17 -14 -35 -42 -41 -62 -13 -49 -13 -109 1 -118 15 -9
199 86 199 103 0 23 -29 71 -52 87 -33 23 -72 20 -107 -10z"/>
<path d="M6511 2569 c-379 -58 -659 -405 -601 -747 22 -130 112 -244 245 -306
94 -45 168 -59 315 -59 208 0 345 40 508 147 40 26 74 51 77 56 2 4 -56 46
-129 94 l-134 87 -37 -25 c-61 -42 -132 -60 -225 -60 -129 1 -214 49 -227 128
l-6 36 430 0 429 0 17 53 c31 97 15 253 -36 353 -51 99 -170 191 -295 226 -80
22 -242 31 -331 17z m207 -313 c39 -20 72 -70 72 -108 l0 -28 -220 0 c-249 0
-249 0 -182 71 56 59 139 91 227 86 39 -2 84 -11 103 -21z"/>
<path d="M7854 2566 c-97 -19 -137 -32 -218 -74 -187 -98 -317 -258 -362 -450
-24 -102 -15 -244 20 -316 54 -111 156 -196 289 -240 127 -42 366 -40 515 5
82 25 231 102 280 145 l37 31 -90 58 c-50 32 -109 71 -133 86 l-42 27 -63 -33
c-111 -59 -235 -69 -332 -26 -41 18 -94 71 -96 97 -1 8 -2 20 -3 27 -1 9 93
13 428 17 l429 5 14 40 c30 83 15 256 -29 352 -46 98 -165 193 -293 232 -90
28 -253 36 -351 17z m229 -315 c22 -13 41 -36 51 -61 29 -74 41 -70 -209 -70
-209 0 -224 1 -218 18 20 54 80 103 155 128 63 20 176 13 221 -15z"/>
<path d="M10405 2570 c-130 -21 -271 -82 -365 -158 -180 -148 -274 -372 -241
-580 15 -99 41 -151 110 -222 106 -107 239 -153 446 -153 145 0 230 15 347 61
74 28 238 128 238 144 0 5 -59 47 -131 93 l-130 85 -30 -21 c-86 -61 -255 -83
-351 -46 -58 23 -108 77 -108 117 l0 30 425 0 425 0 17 38 c13 27 17 63 17
137 0 155 -41 255 -140 344 -62 55 -137 95 -215 117 -68 18 -236 26 -314 14z
m206 -318 c40 -24 69 -69 69 -106 l0 -26 -225 0 -226 0 15 28 c24 45 79 91
137 112 71 27 181 23 230 -8z"/>
<path d="M8661 2398 c-13 -79 -26 -149 -29 -155 -3 -10 50 -13 247 -13 138 0
251 -3 251 -7 0 -5 -143 -170 -317 -368 l-316 -360 588 -3 c323 -1 589 -1 591
0 2 3 44 283 44 299 0 5 -115 10 -264 11 l-263 3 284 310 c156 171 307 336
335 368 l50 57 -589 0 -589 0 -23 -142z"/>
<path d="M5287 1213 c-3 -5 -13 -63 -23 -130 l-18 -121 -33 28 c-139 123 -378
-10 -400 -222 -14 -140 77 -240 207 -225 56 7 103 28 144 66 l29 26 -7 -37 -7
-38 95 0 c91 0 96 1 101 22 6 28 83 525 92 591 l6 47 -91 0 c-50 0 -93 -3 -95
-7z m-92 -335 c23 -27 26 -39 22 -76 -8 -76 -70 -137 -137 -137 -53 0 -81 29
-87 88 -10 84 52 156 134 157 34 0 46 -5 68 -32z"/>
<path d="M8126 1212 c-2 -4 -12 -50 -21 -102 -8 -52 -18 -108 -21 -123 l-6
-29 -32 31 c-128 124 -377 -11 -393 -213 -7 -88 2 -130 40 -173 72 -82 190
-85 292 -7 l46 35 -7 -36 -6 -35 94 0 94 0 18 113 c54 330 84 533 80 539 -7
11 -171 10 -178 0z m-101 -327 c32 -31 34 -104 5 -153 -24 -39 -99 -77 -136
-68 -62 16 -87 88 -56 160 37 82 135 114 187 61z"/>
<path d="M8376 1208 c-4 -12 -46 -277 -86 -535 l-17 -113 93 0 c80 0 93 2 98
18 6 22 83 508 92 585 l7 57 -92 0 c-65 0 -93 -4 -95 -12z"/>
<path d="M5855 1158 c-4 -10 -95 -583 -95 -595 0 -2 40 -3 89 -3 77 0 90 3 95
18 3 9 15 82 27 162 11 80 22 146 24 148 2 2 42 -71 90 -162 l86 -166 93 0 94
0 12 83 c6 45 27 176 46 291 19 115 34 215 34 223 0 10 -21 13 -89 13 l-89 0
-11 -62 c-6 -35 -18 -109 -27 -166 -10 -56 -19 -100 -22 -97 -3 3 -42 76 -87
163 l-82 157 -92 3 c-67 2 -93 -1 -96 -10z"/>
<path d="M3695 1020 c-199 -77 -259 -378 -92 -459 74 -36 151 -26 235 31 l42
29 0 -31 0 -31 92 3 92 3 32 195 c18 107 33 210 33 228 l1 32 -90 0 -90 0 -6
-30 -6 -30 -34 30 c-59 51 -127 61 -209 30z m190 -135 c54 -53 23 -162 -58
-204 -126 -64 -201 81 -98 189 34 36 43 40 85 40 36 0 52 -5 71 -25z"/>
<path d="M4533 1026 c-23 -8 -66 -30 -94 -51 l-51 -36 7 40 7 41 -95 0 -94 0
-32 -202 c-18 -112 -35 -215 -38 -230 l-5 -28 96 0 c53 0 96 1 96 3 1 41 44
237 57 259 27 46 65 70 113 72 76 2 83 -35 47 -251 l-14 -83 97 0 96 0 22 143
c12 78 22 162 22 187 0 50 -25 100 -64 125 -34 22 -122 28 -173 11z"/>
<path d="M6682 1025 c-87 -24 -168 -90 -208 -168 -21 -40 -29 -136 -15 -178
37 -113 184 -166 346 -123 63 16 145 58 145 74 0 6 -24 26 -53 45 -52 35 -54
35 -85 20 -70 -35 -156 -24 -182 24 -11 21 -10 21 179 21 138 0 192 3 197 12
14 22 8 132 -8 163 -20 37 -63 78 -106 99 -47 24 -146 29 -210 11z"/>
<path d="M7279 1026 c-200 -54 -302 -288 -181 -416 50 -51 128 -75 228 -67 76
6 179 43 209 77 14 16 11 20 -39 53 l-55 36 -47 -20 c-57 -26 -115 -21 -150
12 -13 12 -24 26 -24 31 0 4 85 8 189 8 214 0 201 -6 201 90 -1 151 -156 243
-331 196z"/>
<path d="M8801 1030 c-155 -33 -269 -193 -239 -336 31 -146 241 -200 425 -109
40 20 73 40 73 44 0 5 -24 24 -54 44 l-55 36 -47 -20 c-57 -26 -115 -21 -150
12 -13 12 -24 26 -24 31 0 4 85 8 189 8 187 0 189 0 195 23 18 68 -2 158 -47
205 -52 57 -166 83 -266 62z"/>
<path d="M1448 694 c-3 -3 -102 -49 -218 -102 -117 -53 -212 -101 -211 -107 8
-31 261 -101 405 -112 l79 -6 -6 74 c-4 41 -10 116 -13 167 -6 85 -16 107 -36
86z"/>
</g>
</svg>
