<svg width="24" height="33" viewBox="0 0 24 33" fill="none" xmlns="http://www.w3.org/2000/svg">
<path fill-rule="evenodd" clip-rule="evenodd" d="M22 6.08508C22 6.4993 21.6642 6.83508 21.25 6.83508L6.75 6.83508C6.33579 6.83508 6 6.4993 6 6.08508C6 5.67087 6.33579 5.33508 6.75 5.33508L21.25 5.33508C21.6642 5.33508 22 5.67087 22 6.08508ZM22 15.4215C22 15.8357 21.6642 16.1715 21.25 16.1715L6.75 16.1715C6.33579 16.1715 6 15.8357 6 15.4215C6 15.0073 6.33579 14.6715 6.75 14.6715L21.25 14.6715C21.6642 14.6715 22 15.0073 22 15.4215ZM21.25 25.5079C21.6642 25.5079 22 25.1721 22 24.7579C22 24.3437 21.6642 24.0079 21.25 24.0079L6.75 24.0079C6.33579 24.0079 6 24.3437 6 24.7579C6 25.1721 6.33579 25.5079 6.75 25.5079L21.25 25.5079Z" fill="#006633"/>
<circle cx="3" cy="5" r="1" fill="#006633"/>
<circle cx="3" cy="12" r="1" fill="#006633"/>
<circle cx="3" cy="19" r="1" fill="#006633"/>
</svg>
