<svg width="15" height="20" viewBox="0 0 15 20" fill="none" xmlns="http://www.w3.org/2000/svg">
<path d="M7.39338 4.08872C7.86871 3.82 8.37805 3.53885 8.87822 3.24267C8.95341 3.19821 9.01095 3.08967 9.03514 2.99944C9.19533 2.40315 9.33002 1.79902 9.50198 1.20665C9.59547 0.886272 9.8302 0.765968 10.0636 0.87385C10.3415 1.00265 10.3395 1.22822 10.2585 1.48256C10.1467 1.83367 10.0427 2.18804 9.93939 2.54176C9.77528 3.10667 9.81189 3.64804 10.0584 4.19399C10.3683 4.87985 10.2447 5.57814 9.92043 6.21301C9.42221 7.18721 9.49021 8.12742 9.90146 9.10097C10.6939 10.9801 11.8008 12.6702 12.9843 14.3159C13.5112 15.0495 14.0853 15.7491 14.6143 16.4814C14.7117 16.6161 14.7751 16.8776 14.7078 16.9992C14.6411 17.1202 14.3815 17.2078 14.2193 17.1901C12.456 17.0031 10.7972 17.3752 9.2921 18.2578C7.38357 19.3772 5.42928 19.37 3.40699 18.7377C2.31183 18.3951 1.28924 17.8878 0.331386 17.2549C-0.0681032 16.9907 -0.0968716 16.8083 0.199312 16.4336C1.68677 14.5532 3.10558 12.6238 4.21905 10.493C4.56492 9.83129 4.82907 9.12581 5.10302 8.42948C5.35605 7.78612 5.25209 7.14798 4.99579 6.52423C4.88464 6.25289 4.76565 5.98351 4.67607 5.70498C4.53027 5.24861 4.46815 4.75889 4.6813 4.32933C5.09256 3.50028 4.93564 2.70195 4.67607 1.89055C4.62311 1.72513 4.55969 1.56298 4.50412 1.39887C4.42108 1.15434 4.48712 0.954924 4.73099 0.866004C4.9716 0.777737 5.17821 0.87385 5.24948 1.121C5.42667 1.73494 5.57443 2.35739 5.7477 2.97329C5.77777 3.07921 5.85296 3.20213 5.94384 3.25705C6.42375 3.54735 6.91609 3.81804 7.39273 4.08938L7.39338 4.08872Z" fill="#4C4C4D"/>
</svg>
